<svg xmlns="http://www.w3.org/2000/svg" width="900" height="330" viewBox="0 0 900 330" role="img" aria-label="Linearized AIGC confidence under competition transforms"><rect width="100%" height="100%" fill="white"/><text x="64" y="22" font-size="16">Linearized AIGC confidence under competition transforms</text><line x1="64" y1="238.0" x2="876" y2="238.0" stroke="#d6d6d6"/><text x="54" y="242.0" font-size="11" text-anchor="end">0.00</text><line x1="64" y1="188.0" x2="876" y2="188.0" stroke="#d6d6d6"/><text x="54" y="192.0" font-size="11" text-anchor="end">0.25</text><line x1="64" y1="138.0" x2="876" y2="138.0" stroke="#d6d6d6"/><text x="54" y="142.0" font-size="11" text-anchor="end">0.50</text><line x1="64" y1="88.0" x2="876" y2="88.0" stroke="#d6d6d6"/><text x="54" y="92.0" font-size="11" text-anchor="end">0.75</text><line x1="64" y1="38.0" x2="876" y2="38.0" stroke="#d6d6d6"/><text x="54" y="42.0" font-size="11" text-anchor="end">1.00</text><polyline points="64.0,88.6 118.1,89.1 172.3,91.1 226.4,87.7 280.5,91.3 334.7,89.0 388.8,87.5 442.9,98.8 497.1,90.4 551.2,100.3 605.3,95.4 659.5,105.3 713.6,119.1 767.7,89.6 821.9,75.6 876.0,60.0" fill="none" stroke="#c9324d" stroke-width="3"/><circle cx="64.0" cy="88.6" r="4" fill="#c9324d"><title>0.746885</title></circle><circle cx="118.1" cy="89.1" r="4" fill="#c9324d"><title>0.744394</title></circle><circle cx="172.3" cy="91.1" r="4" fill="#c9324d"><title>0.734550</title></circle><circle cx="226.4" cy="87.7" r="4" fill="#c9324d"><title>0.751386</title></circle><circle cx="280.5" cy="91.3" r="4" fill="#c9324d"><title>0.733577</title></circle><circle cx="334.7" cy="89.0" r="4" fill="#c9324d"><title>0.745123</title></circle><circle cx="388.8" cy="87.5" r="4" fill="#c9324d"><title>0.752505</title></circle><circle cx="442.9" cy="98.8" r="4" fill="#c9324d"><title>0.695876</title></circle><circle cx="497.1" cy="90.4" r="4" fill="#c9324d"><title>0.738141</title></circle><circle cx="551.2" cy="100.3" r="4" fill="#c9324d"><title>0.688253</title></circle><circle cx="605.3" cy="95.4" r="4" fill="#c9324d"><title>0.713008</title></circle><circle cx="659.5" cy="105.3" r="4" fill="#c9324d"><title>0.663655</title></circle><circle cx="713.6" cy="119.1" r="4" fill="#c9324d"><title>0.594737</title></circle><circle cx="767.7" cy="89.6" r="4" fill="#c9324d"><title>0.742199</title></circle><circle cx="821.9" cy="75.6" r="4" fill="#c9324d"><title>0.812023</title></circle><circle cx="876.0" cy="60.0" r="4" fill="#c9324d"><title>0.890050</title></circle><text x="64.0" y="256" transform="rotate(48 64.0 256)" font-size="10" text-anchor="start">clean</text><text x="118.1" y="256" transform="rotate(48 118.1 256)" font-size="10" text-anchor="start">jpeg_q90</text><text x="172.3" y="256" transform="rotate(48 172.3 256)" font-size="10" text-anchor="start">jpeg_q70</text><text x="226.4" y="256" transform="rotate(48 226.4 256)" font-size="10" text-anchor="start">jpeg_q50</text><text x="280.5" y="256" transform="rotate(48 280.5 256)" font-size="10" text-anchor="start">jpeg_q30</text><text x="334.7" y="256" transform="rotate(48 334.7 256)" font-size="10" text-anchor="start">blur_sigma0.5</text><text x="388.8" y="256" transform="rotate(48 388.8 256)" font-size="10" text-anchor="start">blur_sigma1</text><text x="442.9" y="256" transform="rotate(48 442.9 256)" font-size="10" text-anchor="start">blur_sigma2</text><text x="497.1" y="256" transform="rotate(48 497.1 256)" font-size="10" text-anchor="start">resize_0.5x</text><text x="551.2" y="256" transform="rotate(48 551.2 256)" font-size="10" text-anchor="start">resize_0.25x</text><text x="605.3" y="256" transform="rotate(48 605.3 256)" font-size="10" text-anchor="start">noise_sigma0.02</text><text x="659.5" y="256" transform="rotate(48 659.5 256)" font-size="10" text-anchor="start">noise_sigma0.05</text><text x="713.6" y="256" transform="rotate(48 713.6 256)" font-size="10" text-anchor="start">noise_sigma0.10</text><text x="767.7" y="256" transform="rotate(48 767.7 256)" font-size="10" text-anchor="start">color_minus20</text><text x="821.9" y="256" transform="rotate(48 821.9 256)" font-size="10" text-anchor="start">color_plus20</text><text x="876.0" y="256" transform="rotate(48 876.0 256)" font-size="10" text-anchor="start">center_crop_80</text><text x="18" y="138.0" font-size="12" transform="rotate(-90 18 138.0)" text-anchor="middle">AIGC Confidence</text></svg>